Coordinates
version=1
nRows=30
nColumns=34
inDegrees=no

Units are S.I. units (second, meters, Newtons, ...)
If the header above contains a line with 'inDegrees', this indicates whether rotational values are in degrees (yes) or radians (no).

endheader
time	pelvis_tilt	pelvis_list	pelvis_rotation	pelvis_tx	pelvis_ty	pelvis_tz	hip_flexion_r	hip_adduction_r	hip_rotation_r	knee_angle_r	ankle_angle_r	subtalar_angle_r	mtp_angle_r	hip_flexion_l	hip_adduction_l	hip_rotation_l	knee_angle_l	ankle_angle_l	subtalar_angle_l	mtp_angle_l	lumbar_extension	lumbar_bending	lumbar_rotation	arm_flex_r	arm_add_r	arm_rot_r	elbow_flex_r	pro_sup_r	arm_flex_l	arm_add_l	arm_rot_l	elbow_flex_l	pro_sup_l
0.92	0.135607	0.0399228	-0.0136328	1.01007	1.06239	-0.279609	0.395369	-0.162679	-0.175572	1.02762	-0.10939	-0.183864	-0.00430581	-0.145102	0.0556766	-0.238528	0.183771	0.254154	0.388532	-0.00513404	-0.417703	-0.0338927	-0.0556097	0.00610672	-0.164444	-0.269174	0.609723	2.16536	0.211438	-0.244106	0.0920891	0.921145	2.11355
0.93	0.136823	0.0393311	-0.0132631	1.02219	1.06232	-0.279604	0.397444	-0.159543	-0.18395	0.973595	-0.102455	-0.189378	-0.00431833	-0.166772	0.0569653	-0.239572	0.16937	0.256584	0.396435	-0.00514798	-0.420317	-0.0308557	-0.059961	0.00159079	-0.166762	-0.270725	0.608605	2.16469	0.220284	-0.248534	0.0965489	0.939892	2.10903
0.94	0.138099	0.0393296	-0.0132182	1.03436	1.062	-0.279518	0.396897	-0.156603	-0.19366	0.914253	-0.0967632	-0.19624	-0.00433085	-0.188804	0.0589816	-0.240317	0.154632	0.258539	0.403739	-0.00516192	-0.42302	-0.0285921	-0.0640335	-0.00267989	-0.168971	-0.272123	0.6071	2.16377	0.228503	-0.253418	0.101551	0.959048	2.10385
0.95	0.139295	0.0399194	-0.0135366	1.04659	1.06144	-0.279344	0.393895	-0.153712	-0.204822	0.849547	-0.0920043	-0.202884	-0.00434336	-0.211161	0.0618012	-0.240549	0.139339	0.259926	0.41016	-0.00517587	-0.42562	-0.0271392	-0.0677639	-0.00673773	-0.170997	-0.273548	0.60518	2.16265	0.236046	-0.258644	0.106891	0.978493	2.09827
0.96	0.140284	0.0410927	-0.0142579	1.0589	1.0606	-0.279071	0.388643	-0.150684	-0.217389	0.779538	-0.0876341	-0.207203	-0.00435588	-0.233776	0.0654589	-0.240075	0.123321	0.260666	0.415425	-0.00518982	-0.427929	-0.0265096	-0.0710824	-0.0106102	-0.172778	-0.275172	0.602834	2.16145	0.24287	-0.264089	0.112331	0.998102	2.09267
0.97	0.140961	0.0428356	-0.0154114	1.07131	1.0595	-0.278693	0.381375	-0.147309	-0.231085	0.704489	-0.0829143	-0.206722	-0.0043684	-0.256547	0.0699263	-0.238756	0.106511	0.260725	0.419333	-0.00520378	-0.429782	-0.0266754	-0.0739261	-0.0143204	-0.174262	-0.277152	0.600063	2.16034	0.248941	-0.269624	0.117616	1.01774	2.08748
0.98	0.141237	0.0451015	-0.0169981	1.08383	1.05811	-0.278206	0.372349	-0.143392	-0.245351	0.624971	-0.0770005	-0.198902	-0.00438092	-0.279332	0.0751082	-0.236542	0.0890004	0.260141	0.421811	-0.00521775	-0.431062	-0.0275764	-0.0762522	-0.0178889	-0.175413	-0.279614	0.596887	2.15952	0.254249	-0.275126	0.122511	1.03724	2.08319
0.99	0.141061	0.0478148	-0.0189751	1.09646	1.05644	-0.277606	0.361858	-0.138803	-0.259329	0.541991	-0.0690689	-0.181557	-0.00439344	-0.301943	0.0808473	-0.233505	0.0710648	0.259054	0.422969	-0.00523172	-0.431712	-0.0291247	-0.0780442	-0.0213353	-0.17621	-0.282643	0.593345	2.15915	0.258807	-0.28048	0.126817	1.05644	2.08023
1	0.140438	0.05089	-0.0212571	1.10921	1.0545	-0.276899	0.350252	-0.133519	-0.271898	0.457095	-0.0584601	-0.153309	-0.00440597	-0.324149	0.0869333	-0.229855	0.053179	0.257706	0.423128	-0.00524569	-0.431739	-0.0312052	-0.0793172	-0.0246777	-0.176656	-0.286272	0.589497	2.15929	0.262661	-0.285587	0.1304	1.07518	2.07893
1.01	0.139435	0.0542376	-0.0237236	1.12209	1.05231	-0.276092	0.337965	-0.127654	-0.281774	0.372425	-0.0448138	-0.113995	-0.0044185	-0.345687	0.0931144	-0.225951	0.0359997	0.256439	0.422816	-0.00525968	-0.431223	-0.0336767	-0.0801135	-0.0279273	-0.176776	-0.290477	0.585417	2.15992	0.265883	-0.290365	0.133199	1.09328	2.07944
1.02	0.138174	0.0577541	-0.0262346	1.13507	1.0499	-0.275194	0.325528	-0.121452	-0.287686	0.290682	-0.0281689	-0.0649298	-0.00443103	-0.366275	0.099103	-0.22229	0.020326	0.255665	0.422741	-0.00527367	-0.430316	-0.0363664	-0.0804913	-0.0310803	-0.176627	-0.295176	0.581186	2.16088	0.268564	-0.294745	0.135226	1.1106	2.08167
1.03	0.136831	0.0612897	-0.0286465	1.14815	1.04732	-0.274217	0.313556	-0.115238	-0.288604	0.214953	-0.00900653	-0.00890853	-0.00444357	-0.385638	0.104573	-0.219484	0.00703658	0.255827	0.423721	-0.00528766	-0.429234	-0.0390597	-0.0805069	-0.0341079	-0.176295	-0.300229	0.576879	2.1619	0.270803	-0.298664	0.136551	1.12703	2.08533
1.04	0.135563	0.0645864	-0.0308351	1.1613	1.04462	-0.273171	0.302691	-0.109342	-0.283985	0.148413	0.011771	0.0500825	-0.00445611	-0.403547	0.109155	-0.218215	-0.00299011	0.257339	0.426599	-0.00530166	-0.428267	-0.0414943	-0.0802017	-0.0369524	-0.175902	-0.305443	0.572552	2.16271	0.272685	-0.302057	0.137277	1.14249	2.08996
1.05	0.134539	0.0673746	-0.032712	1.17449	1.04186	-0.272068	0.293532	-0.103967	-0.273969	0.0939126	0.0329177	0.107421	-0.00446866	-0.419842	0.11241	-0.219158	-0.00897573	0.260524	0.43212	-0.00531566	-0.427722	-0.0433019	-0.0795774	-0.0395276	-0.175588	-0.310591	0.568234	2.16304	0.274253	-0.304854	0.137501	1.1569	2.095
1.06	0.133937	0.0693167	-0.0342247	1.18771	1.03912	-0.270923	0.286546	-0.0991202	-0.259427	0.0535589	0.0529526	0.158525	-0.0044812	-0.434454	0.113857	-0.222895	-0.0103339	0.26555	0.440806	-0.00532967	-0.427883	-0.0440447	-0.0785986	-0.0417328	-0.175503	-0.315424	0.563924	2.16273	0.275488	-0.306977	0.137287	1.17021	2.09993
1.07	0.133896	0.070036	-0.0353572	1.20093	1.03645	-0.269747	0.281981	-0.0945738	-0.241824	0.0283824	0.0702853	0.199462	-0.00449375	-0.447415	0.113014	-0.229815	-0.00673904	0.272367	0.45284	-0.00534368	-0.42896	-0.0432541	-0.0772065	-0.0434749	-0.175785	-0.319701	0.559599	2.16173	0.276281	-0.308344	0.136638	1.18236	2.10434
1.08	0.134542	0.0691128	-0.0361096	1.21419	1.03393	-0.268539	0.279837	-0.0899179	-0.222938	0.0182307	0.0833774	0.227415	-0.0045063	-0.458844	0.109468	-0.240016	0.00183917	0.280678	0.467973	-0.00535769	-0.431041	-0.0405158	-0.0753435	-0.0446899	-0.17654	-0.323219	0.555223	2.16016	0.276434	-0.308878	0.135487	1.19331	2.10799
1.09	0.135902	0.0662912	-0.0365123	1.2275	1.0316	-0.267305	0.279886	-0.0846319	-0.204562	0.0219827	0.0909595	0.240956	-0.00451884	-0.468924	0.102917	-0.253249	0.0151545	0.289917	0.485481	-0.00537171	-0.434083	-0.0354744	-0.0729701	-0.0453564	-0.177822	-0.325836	0.550759	2.15826	0.275668	-0.308517	0.133712	1.20299	2.11085
1.1	0.137922	0.0613978	-0.0366139	1.24091	1.02951	-0.266041	0.281778	-0.0782505	-0.188216	0.0378053	0.0922551	0.240089	-0.00453139	-0.477852	0.0932528	-0.268856	0.0327378	0.29926	0.504132	-0.00538574	-0.437923	-0.0279456	-0.0700972	-0.0454984	-0.179627	-0.327502	0.546193	2.15638	0.273671	-0.307219	0.131159	1.21129	2.11308
1.11	0.14045	0.0544126	-0.0364569	1.25446	1.02766	-0.264742	0.285058	-0.0704499	-0.174939	0.0633591	0.0871421	0.226117	-0.00454394	-0.48577	0.0805854	-0.285792	0.0539874	0.307657	0.522248	-0.00539977	-0.442276	-0.017947	-0.0667889	-0.0451858	-0.181885	-0.328266	0.541541	2.1549	0.270132	-0.304972	0.127687	1.21811	2.11496
1.12	0.14326	0.045496	-0.0360759	1.26819	1.02607	-0.263397	0.289224	-0.0611007	-0.165184	0.0959808	0.0762363	0.201342	-0.00455649	-0.49268	0.0652192	-0.30283	0.0783252	0.313934	0.53799	-0.00541381	-0.446762	-0.00569635	-0.0631548	-0.0445265	-0.184468	-0.328277	0.536868	2.15414	0.264792	-0.301797	0.123205	1.2233	2.1168
1.13	0.146061	0.0349778	-0.0355017	1.28214	1.02473	-0.261995	0.293815	-0.0502893	-0.158861	0.132992	0.0608811	0.168708	-0.00456903	-0.498378	0.0476072	-0.318752	0.10534	0.316899	0.549635	-0.00542786	-0.450946	0.00840535	-0.0593314	-0.0436517	-0.187197	-0.32776	0.532292	2.15424	0.257485	-0.297751	0.117704	1.2267	2.11888
1.14	0.148534	0.0233226	-0.0347656	1.29632	1.02364	-0.260522	0.29849	-0.0383022	-0.155476	0.172005	0.0430095	0.131423	-0.00458158	-0.502423	0.0282923	-0.3325	0.134883	0.315423	0.555782	-0.00544191	-0.454382	0.0238101	-0.0554609	-0.042701	-0.189864	-0.326984	0.527983	2.1552	0.248168	-0.292934	0.111272	1.22814	2.12143
1.15	0.15036	0.0110676	-0.0338999	1.31072	1.02279	-0.258967	0.303054	-0.0255742	-0.154297	0.211125	0.0248835	0.0925805	-0.00459412	-0.504163	0.00783932	-0.343261	0.167096	0.308517	0.555487	-0.00545596	-0.456654	0.0398767	-0.0516758	-0.0418104	-0.192254	-0.326222	0.524152	2.15682	0.236927	-0.287479	0.104095	1.22748	2.12455
1.16	0.151225	-0.00125624	-0.0329295	1.32532	1.02216	-0.257319	0.307432	-0.0126164	-0.154534	0.249007	0.00876306	0.0548604	-0.00460666	-0.502806	-0.0132305	-0.350489	0.202381	0.295378	0.548307	-0.00547002	-0.457433	0.0559392	-0.0480938	-0.0411026	-0.19417	-0.325707	0.521034	2.15881	0.223971	-0.281548	0.0964366	1.22459	2.12824
1.17	0.150872	-0.0131434	-0.0318451	1.34008	1.02174	-0.255575	0.311604	8.30568e-05	-0.155483	0.284789	-0.0034272	0.0203175	-0.0046192	-0.497521	-0.0345025	-0.35388	0.241308	0.275434	0.534275	-0.00548408	-0.456507	0.0714062	-0.0448076	-0.0406761	-0.195454	-0.325598	0.518863	2.16084	0.209606	-0.275322	0.0886027	1.21942	2.13237
1.18	0.149159	-0.0241875	-0.0305866	1.35493	1.02152	-0.253739	0.315544	0.0121268	-0.156635	0.317947	-0.01036	-0.00971672	-0.00463174	-0.48754	-0.0557057	-0.353331	0.284486	0.248373	0.513833	-0.00549814	-0.45379	0.0858282	-0.0418951	-0.0405982	-0.196014	-0.325953	0.517844	2.16266	0.194212	-0.268983	0.0809022	1.21195	2.13671
1.19	0.14606	-0.0341315	-0.0290291	1.36982	1.02149	-0.251826	0.319164	0.0232498	-0.157725	0.348165	-0.0114431	-0.0346266	-0.00464428	-0.472257	-0.076715	-0.348885	0.332429	0.214172	0.487747	-0.0055122	-0.449329	0.0989377	-0.0394292	-0.0409003	-0.195828	-0.326715	0.518124	2.1641	0.178201	-0.262703	0.0736101	1.20224	2.14096
1.2	0.141668	-0.0428798	-0.0269846	1.38468	1.02165	-0.249859	0.322302	0.0333296	-0.158723	0.375235	-0.00681318	-0.0544171	-0.00465682	-0.451304	-0.0975208	-0.34069	0.385426	0.173125	0.456991	-0.00552627	-0.443295	0.110656	-0.0374811	-0.0415738	-0.194955	-0.327712	0.519767	2.16511	0.161994	-0.256624	0.0669383	1.19041	2.14483
1.21	0.136177	-0.0504779	-0.0242246	1.39945	1.02196	-0.247869	0.324731	0.0423666	-0.159784	0.399015	0.00279677	-0.0695558	-0.00466935	-0.424602	-0.118169	-0.328969	0.443441	0.125859	0.422638	-0.00554035	-0.435958	0.121066	-0.0361157	-0.0425704	-0.193526	-0.328671	0.522746	2.16572	0.145986	-0.250854	0.0610169	1.17661	2.14805
